<svg xmlns="http://www.w3.org/2000/svg" xmlns:xlink="http://www.w3.org/1999/xlink" width="1920" zoomAndPan="magnify" viewBox="0 0 1440 809.999993" height="1080" preserveAspectRatio="xMidYMid meet" version="1.0"><defs><g/></defs><g fill="#ffffff" fill-opacity="1"><g transform="translate(626.2137, 382.62296)"><g/></g></g><g fill="#ffffff" fill-opacity="1"><g transform="translate(643.792424, 447.653786)"><g><path d="M 1.390625 0 L 1.390625 -72.78125 L 24.359375 -72.78125 L 23.984375 -43.453125 L 25.15625 -43.453125 L 27.5625 -72.78125 L 51.703125 -72.78125 L 45.703125 -36.390625 L 51.96875 0 L 27.609375 0 L 25.15625 -28.578125 L 23.984375 -28.578125 L 24.359375 0 Z M 1.390625 0 "/></g></g></g><g fill="#ffffff" fill-opacity="1"><g transform="translate(692.06034, 447.653786)"><g><path d="M 1.078125 -21.84375 L 1.078125 -51.328125 C 1.078125 -58.859375 3.195312 -64.546875 7.4375 -68.390625 C 11.6875 -72.242188 17.96875 -74.171875 26.28125 -74.171875 C 34.59375 -74.171875 40.867188 -72.234375 45.109375 -68.359375 C 49.359375 -64.492188 51.484375 -58.742188 51.484375 -51.109375 L 51.484375 -21.84375 C 51.484375 -14.207031 49.359375 -8.425781 45.109375 -4.5 C 40.867188 -0.570312 34.59375 1.390625 26.28125 1.390625 C 17.96875 1.390625 11.722656 -0.570312 7.546875 -4.5 C 3.367188 -8.425781 1.210938 -14.207031 1.078125 -21.84375 Z M 24.78125 -18.84375 C 24.78125 -17.800781 25.28125 -17.28125 26.28125 -17.28125 C 27.28125 -17.28125 27.78125 -17.800781 27.78125 -18.84375 L 27.78125 -54.109375 C 27.78125 -55.140625 27.28125 -55.65625 26.28125 -55.65625 C 25.28125 -55.65625 24.78125 -55.140625 24.78125 -54.109375 Z M 24.78125 -18.84375 "/></g></g></g><g fill="#ffffff" fill-opacity="1"><g transform="translate(744.288575, 447.653786)"><g><path d="M 50.890625 0 L 54.90625 13.375 C 51.300781 15.375 45.828125 16.375 38.484375 16.375 C 31.703125 16.519531 26.507812 15.253906 22.90625 12.578125 C 19.300781 9.898438 17.320312 5.90625 16.96875 0.59375 L 16.96875 0.375 C 6.375 -2.226562 1.078125 -9.613281 1.078125 -21.78125 L 1.078125 -51.109375 C 1.078125 -58.742188 3.195312 -64.492188 7.4375 -68.359375 C 11.6875 -72.234375 17.945312 -74.171875 26.21875 -74.171875 C 34.53125 -74.171875 40.8125 -72.234375 45.0625 -68.359375 C 49.3125 -64.492188 51.4375 -58.742188 51.4375 -51.109375 L 51.4375 -21.78125 C 51.4375 -9.582031 46.132812 -2.195312 35.53125 0.375 L 35.59375 0.59375 C 36.34375 2.976562 40.160156 3.171875 47.046875 1.171875 Z M 24.671875 -54.109375 L 24.671875 -18.84375 C 24.671875 -17.800781 25.1875 -17.28125 26.21875 -17.28125 C 27.21875 -17.28125 27.71875 -17.800781 27.71875 -18.84375 L 27.71875 -54.109375 C 27.71875 -55.140625 27.21875 -55.65625 26.21875 -55.65625 C 25.1875 -55.65625 24.671875 -55.140625 24.671875 -54.109375 Z M 24.671875 -54.109375 "/></g></g></g><g fill="#ffffff" fill-opacity="1"><g transform="translate(796.839292, 447.653786)"><g/></g></g></svg>